<mxfile host="65bd71144e">
    <diagram id="xgnaoKV5zgHSHCQFeeMw" name="ページ1">
        <mxGraphModel dx="740" dy="566" grid="1" gridSize="10" guides="1" tooltips="1" connect="1" arrows="1" fold="1" page="1" pageScale="1" pageWidth="827" pageHeight="1169" math="0" shadow="0">
            <root>
                <mxCell id="0"/>
                <mxCell id="1" parent="0"/>
                <mxCell id="2" value="&lt;h1 style=&quot;font-size: 24px;&quot;&gt;FizzBuzz問題&lt;/h1&gt;" style="text;html=1;resizable=0;autosize=1;align=center;verticalAlign=middle;points=[];fillColor=none;strokeColor=none;rounded=0;rotation=0;fontSize=24;" vertex="1" parent="1">
                    <mxGeometry x="334" y="5" width="160" height="70" as="geometry"/>
                </mxCell>
                <mxCell id="5" value="1から順番に、指定された数（例えば 100）までの数字を表示し、3の倍数では Fizz、5の倍数では Buzz、3と5の倍数の時は、" style="text;html=1;resizable=0;autosize=1;align=left;verticalAlign=middle;points=[];fillColor=none;strokeColor=none;rounded=0;fontSize=12;textDirection=ltr;spacingTop=0;spacing=0;spacingBottom=0;spacingLeft=0;" vertex="1" parent="1">
                    <mxGeometry x="120" y="110" width="690" height="20" as="geometry"/>
                </mxCell>
                <mxCell id="8" value="&lt;p&gt;要件：&lt;/p&gt;" style="text;html=1;resizable=0;autosize=1;align=center;verticalAlign=middle;points=[];fillColor=none;strokeColor=none;rounded=0;fontSize=12;" vertex="1" parent="1">
                    <mxGeometry x="70" y="100" width="50" height="40" as="geometry"/>
                </mxCell>
                <mxCell id="9" value="手順：&lt;font style=&quot;font-size: 12px;&quot;&gt;&lt;br style=&quot;font-size: 12px;&quot;&gt;&lt;/font&gt;" style="text;html=1;resizable=0;autosize=1;align=center;verticalAlign=middle;points=[];fillColor=none;strokeColor=none;rounded=0;fontSize=12;" vertex="1" parent="1">
                    <mxGeometry x="70" y="170" width="50" height="20" as="geometry"/>
                </mxCell>
                <mxCell id="11" value="1. 上限の数を指定する" style="text;html=1;resizable=0;autosize=1;align=left;verticalAlign=middle;points=[];fillColor=none;strokeColor=none;rounded=0;fontSize=12;" vertex="1" parent="1">
                    <mxGeometry x="120" y="170" width="140" height="20" as="geometry"/>
                </mxCell>
                <mxCell id="12" value="&lt;span&gt;FizzBuzz と表示するようなアルゴリズムを作りなさい。&lt;/span&gt;" style="text;html=1;resizable=0;autosize=1;align=left;verticalAlign=middle;points=[];fillColor=none;strokeColor=none;rounded=0;fontSize=12;" vertex="1" parent="1">
                    <mxGeometry x="120" y="130" width="320" height="20" as="geometry"/>
                </mxCell>
                <mxCell id="13" value="2. 1から指定された上限の数まで以下の処理を繰り返す" style="text;html=1;resizable=0;autosize=1;align=left;verticalAlign=middle;points=[];fillColor=none;strokeColor=none;rounded=0;fontSize=12;" vertex="1" parent="1">
                    <mxGeometry x="120" y="190" width="310" height="20" as="geometry"/>
                </mxCell>
                <mxCell id="14" value="1. 3の倍数のとき、Fizzと表示する" style="text;html=1;resizable=0;autosize=1;align=left;verticalAlign=middle;points=[];fillColor=none;strokeColor=none;rounded=0;fontSize=12;" vertex="1" parent="1">
                    <mxGeometry x="140" y="210" width="200" height="20" as="geometry"/>
                </mxCell>
                <mxCell id="15" value="2. 5の倍数のとき、Buzzと表示する" style="text;html=1;resizable=0;autosize=1;align=left;verticalAlign=middle;points=[];fillColor=none;strokeColor=none;rounded=0;fontSize=12;" vertex="1" parent="1">
                    <mxGeometry x="140" y="230" width="210" height="20" as="geometry"/>
                </mxCell>
                <mxCell id="16" value="4. それ以外のとき、数字を表示する" style="text;html=1;resizable=0;autosize=1;align=left;verticalAlign=middle;points=[];fillColor=none;strokeColor=none;rounded=0;fontSize=12;" vertex="1" parent="1">
                    <mxGeometry x="140" y="270" width="210" height="20" as="geometry"/>
                </mxCell>
                <mxCell id="17" value="3. 3と5の倍数のとき、FizzBuzz と表示する" style="text;html=1;resizable=0;autosize=1;align=left;verticalAlign=middle;points=[];fillColor=none;strokeColor=none;rounded=0;fontSize=12;" vertex="1" parent="1">
                    <mxGeometry x="140" y="250" width="250" height="20" as="geometry"/>
                </mxCell>
                <mxCell id="46" value="" style="group" vertex="1" connectable="0" parent="1">
                    <mxGeometry x="250" y="360" width="299" height="680" as="geometry"/>
                </mxCell>
                <mxCell id="18" value="開始" style="rounded=1;whiteSpace=wrap;html=1;fontSize=12;" vertex="1" parent="46">
                    <mxGeometry x="116" width="116" height="30" as="geometry"/>
                </mxCell>
                <mxCell id="19" value="終了" style="rounded=1;whiteSpace=wrap;html=1;fontSize=12;" vertex="1" parent="46">
                    <mxGeometry x="116" y="650" width="116" height="30" as="geometry"/>
                </mxCell>
                <mxCell id="20" value="上限の数字を指示する開始数字を1とする" style="rounded=0;whiteSpace=wrap;html=1;fontSize=12;spacing=15;" vertex="1" parent="46">
                    <mxGeometry x="96" y="60" width="155" height="60" as="geometry"/>
                </mxCell>
                <mxCell id="22" value="数字が上限に達したか" style="rhombus;whiteSpace=wrap;html=1;fontSize=12;" vertex="1" parent="46">
                    <mxGeometry x="81" y="150" width="186" height="50" as="geometry"/>
                </mxCell>
                <mxCell id="24" value="3の倍数のとき、Fizz と表示する&lt;br&gt;&lt;br&gt;5の倍数のとき、Buzzと表示する&lt;br&gt;&lt;br&gt;3と5の倍数のとき、FizzBuzzと表示する&lt;br&gt;&lt;br&gt;それ以外のとき、数字を表示する" style="rounded=0;whiteSpace=wrap;html=1;fontSize=12;spacing=15;" vertex="1" parent="46">
                    <mxGeometry x="49" y="230" width="250" height="150" as="geometry"/>
                </mxCell>
                <mxCell id="45" style="edgeStyle=none;html=1;exitX=0.5;exitY=1;exitDx=0;exitDy=0;fontSize=12;entryX=0;entryY=0.5;entryDx=0;entryDy=0;" edge="1" parent="46" source="26" target="22">
                    <mxGeometry relative="1" as="geometry">
                        <mxPoint x="220" y="-40" as="targetPoint"/>
                        <Array as="points">
                            <mxPoint x="174" y="560"/>
                            <mxPoint y="560"/>
                            <mxPoint y="175"/>
                        </Array>
                    </mxGeometry>
                </mxCell>
                <mxCell id="26" value="数字に1プラスする" style="rounded=0;whiteSpace=wrap;html=1;fontSize=12;" vertex="1" parent="46">
                    <mxGeometry x="99" y="410" width="150" height="30" as="geometry"/>
                </mxCell>
                <mxCell id="21" value="" style="edgeStyle=none;html=1;fontSize=12;" edge="1" parent="46" source="18" target="20">
                    <mxGeometry relative="1" as="geometry"/>
                </mxCell>
                <mxCell id="23" value="" style="edgeStyle=none;html=1;fontSize=12;" edge="1" parent="46" source="20" target="22">
                    <mxGeometry relative="1" as="geometry"/>
                </mxCell>
                <mxCell id="27" value="" style="edgeStyle=none;html=1;fontSize=12;" edge="1" parent="46" source="22" target="24">
                    <mxGeometry relative="1" as="geometry"/>
                </mxCell>
                <mxCell id="28" value="" style="edgeStyle=none;html=1;fontSize=12;" edge="1" parent="46" source="24" target="26">
                    <mxGeometry relative="1" as="geometry"/>
                </mxCell>
                <mxCell id="47" style="edgeStyle=none;html=1;exitX=1;exitY=0.5;exitDx=0;exitDy=0;fontSize=12;entryX=0.5;entryY=0;entryDx=0;entryDy=0;" edge="1" parent="46" source="22" target="19">
                    <mxGeometry relative="1" as="geometry">
                        <mxPoint x="80" y="600" as="targetPoint"/>
                        <Array as="points">
                            <mxPoint x="350" y="175"/>
                            <mxPoint x="350" y="600"/>
                            <mxPoint x="174" y="600"/>
                        </Array>
                    </mxGeometry>
                </mxCell>
                <mxCell id="48" value="no" style="text;html=1;resizable=0;autosize=1;align=center;verticalAlign=middle;points=[];fillColor=none;strokeColor=none;rounded=0;fontSize=10;" vertex="1" parent="46">
                    <mxGeometry x="140" y="200" width="30" height="20" as="geometry"/>
                </mxCell>
                <mxCell id="49" value="yes" style="text;html=1;resizable=0;autosize=1;align=center;verticalAlign=middle;points=[];fillColor=none;strokeColor=none;rounded=0;fontSize=10;" vertex="1" parent="46">
                    <mxGeometry x="251" y="180" width="30" height="20" as="geometry"/>
                </mxCell>
            </root>
        </mxGraphModel>
    </diagram>
</mxfile>